<?xml version="1.0" standalone="no"?>
<!DOCTYPE svg PUBLIC "-//W3C//DTD SVG 20010904//EN"
 "http://www.w3.org/TR/2001/REC-SVG-20010904/DTD/svg10.dtd">
<svg version="1.0" xmlns="http://www.w3.org/2000/svg"
 width="1024.000000pt" height="1024.000000pt" viewBox="0 0 1024.000000 1024.000000"
 preserveAspectRatio="xMidYMid meet">

<g transform="translate(0.000000,1024.000000) scale(0.100000,-0.100000)"
fill="#000000" stroke="none">
<path d="M4795 9723 c-812 -55 -1590 -317 -2245 -756 -279 -186 -463 -338
-710 -586 -499 -499 -857 -1083 -1084 -1766 -340 -1019 -308 -2114 91 -3119
427 -1077 1237 -1945 2288 -2452 789 -380 1661 -528 2525 -428 942 109 1803
503 2545 1166 745 665 1258 1584 1440 2580 96 528 96 1099 -1 1628 -220 1204
-917 2275 -1919 2949 -205 138 -336 214 -560 322 -546 264 -1098 411 -1719
459 -118 9 -533 11 -651 3z m487 -1395 c167 -77 257 -285 200 -464 l-19 -62
114 -21 c668 -126 1221 -548 1524 -1165 111 -227 186 -483 211 -727 l12 -107
84 -4 c83 -3 84 -3 119 -42 33 -36 35 -42 30 -89 -3 -41 -10 -56 -36 -79 l-31
-28 -2370 0 -2370 0 -31 28 c-36 32 -49 100 -27 142 26 48 74 70 154 70 l74 0
0 44 c0 25 11 109 24 188 108 633 472 1172 1016 1504 209 127 466 221 737 270
l92 16 -14 28 c-8 15 -19 56 -25 92 -32 182 81 365 263 424 68 22 200 13 269
-18z m2020 -3198 c37 -37 40 -44 35 -81 -7 -51 -138 -316 -210 -424 -60 -91
-141 -159 -234 -197 l-58 -23 -1680 -3 c-1174 -2 -1696 1 -1732 8 -176 37
-288 160 -462 509 -72 143 -71 187 4 233 29 17 112 18 2164 18 l2133 0 40 -40z
m-3457 -1125 c19 -18 25 -35 25 -65 0 -58 -33 -90 -94 -90 -38 0 -48 5 -71 32
-22 26 -26 39 -21 67 12 76 108 109 161 56z m2513 -161 l2 -181 43 42 c105
105 291 80 360 -48 21 -40 22 -52 22 -307 l0 -265 -82 -3 -82 -3 -3 235 c-3
220 -4 236 -24 263 -46 61 -139 52 -198 -20 l-31 -39 -3 -219 -3 -219 -85 0
-84 0 0 469 0 470 28 4 c15 2 52 4 82 3 l55 -1 3 -181z m-471 135 c61 -23 144
-93 170 -142 18 -36 10 -47 -60 -82 l-51 -25 -46 48 c-32 34 -60 52 -92 61
-79 22 -159 -6 -178 -64 -22 -68 23 -115 152 -155 169 -53 253 -110 280 -189
21 -61 15 -149 -15 -207 -31 -61 -72 -98 -147 -133 -46 -21 -69 -25 -140 -24
-97 0 -153 17 -216 66 -49 38 -114 122 -114 148 0 20 84 69 118 69 10 0 35
-20 55 -45 21 -25 51 -52 66 -60 81 -41 183 -23 216 39 36 66 -3 122 -113 162
-171 63 -208 80 -245 113 -55 49 -77 101 -77 182 0 114 57 196 169 240 67 26
193 25 268 -2z m-3864 -12 c65 -29 114 -75 144 -135 24 -48 28 -69 28 -137 -1
-59 -7 -92 -22 -126 -24 -55 -83 -114 -129 -131 -39 -14 -41 -19 -15 -42 38
-34 203 -287 197 -301 -4 -12 -26 -15 -99 -15 l-94 0 -74 122 c-41 67 -87 137
-103 155 -25 30 -34 33 -82 33 l-53 0 -3 -152 -3 -153 -87 -3 -88 -3 0 449 c0
247 3 452 7 456 5 4 105 6 223 4 176 -3 222 -7 253 -21z m697 -221 c115 -60
169 -145 178 -281 l5 -85 -29 0 c-16 0 -119 -2 -229 -3 l-200 -2 3 -30 c5 -40
31 -83 65 -109 22 -16 43 -21 91 -21 58 0 68 4 111 37 l47 37 54 -27 c66 -32
68 -47 14 -106 -59 -64 -126 -90 -225 -89 -144 1 -249 62 -304 178 -33 69 -41
219 -17 296 32 100 107 179 203 215 52 20 187 13 233 -10z m701 9 c64 -23 115
-61 149 -113 46 -70 42 -88 -27 -107 -32 -9 -64 -18 -70 -20 -7 -3 -17 1 -22
8 -59 75 -78 89 -125 94 -105 12 -159 -54 -160 -197 -1 -138 47 -202 149 -202
53 0 89 21 113 63 11 18 25 29 39 29 32 0 133 -41 133 -54 0 -17 -53 -97 -81
-123 -80 -73 -233 -90 -347 -39 -110 51 -172 145 -186 286 -17 167 64 318 197
369 64 25 176 27 238 6z m1065 -13 c23 -12 61 -43 86 -71 99 -110 113 -317 30
-465 -76 -134 -252 -184 -376 -106 -25 16 -46 34 -46 40 0 5 -3 10 -7 10 -5 0
-7 -66 -5 -147 4 -205 9 -194 -91 -191 l-82 3 -3 463 c-2 365 0 463 10 466 7
3 39 7 71 9 67 6 91 -9 85 -55 -3 -15 -4 -28 -3 -28 1 0 20 17 42 38 22 21 55
43 74 50 52 17 167 9 215 -16z m689 -1 c112 -52 159 -121 177 -257 9 -65 9
-87 -1 -97 -9 -9 -68 -11 -231 -8 -242 3 -229 7 -210 -61 31 -110 180 -140
276 -56 l33 30 53 -29 c29 -15 54 -35 56 -43 4 -22 -53 -86 -102 -115 -135
-79 -339 -40 -433 83 -43 57 -64 129 -64 227 0 141 45 235 145 303 60 40 94
50 176 51 52 1 77 -5 125 -28z m2146 13 c74 -22 132 -80 153 -155 13 -45 16
-98 14 -285 l-3 -229 -75 0 -75 0 -5 39 -5 38 -20 -22 c-82 -91 -258 -100
-351 -17 -47 41 -64 77 -64 137 0 63 18 106 61 147 56 52 100 65 242 71 l127
5 0 31 c0 42 -30 98 -60 113 -34 17 -105 16 -139 -2 -16 -8 -38 -31 -50 -51
-20 -34 -24 -36 -57 -29 -88 16 -100 34 -68 98 30 59 76 97 144 118 45 13 175
10 231 -7z m702 9 c3 -5 -1 -44 -7 -88 l-11 -80 -58 -1 c-66 -1 -100 -20 -132
-75 -18 -30 -20 -56 -24 -236 l-3 -203 -84 0 -84 0 2 333 3 332 70 6 c86 8 98
0 93 -59 -2 -33 -1 -40 7 -27 26 44 52 69 89 86 41 18 131 26 139 12z m492
-23 c68 -33 128 -96 149 -156 23 -65 33 -188 17 -199 -7 -4 -111 -6 -232 -6
-241 2 -230 5 -208 -60 22 -66 83 -109 151 -109 38 0 107 29 127 53 7 10 22
17 33 17 26 0 98 -38 105 -56 8 -21 -42 -81 -95 -115 -163 -103 -414 -22 -481
155 -80 214 12 433 209 497 50 16 172 5 225 -21z m-4650 -325 l0 -330 -85 0
-85 0 -3 320 c-1 176 0 326 3 333 3 9 27 12 87 10 l83 -3 0 -330z"/>
<path d="M5055 8111 c-53 -32 -68 -58 -73 -119 -3 -47 0 -63 20 -92 87 -129
283 -58 265 96 -11 105 -127 168 -212 115z"/>
<path d="M4860 7575 c-285 -40 -597 -151 -815 -290 -230 -147 -437 -350 -581
-570 -164 -252 -277 -575 -308 -882 l-5 -53 1968 0 1967 0 -8 83 c-35 335
-169 676 -377 957 -79 106 -250 280 -357 361 -254 194 -551 322 -874 379 -164
29 -459 36 -610 15z"/>
<path d="M3212 4932 c2 -5 28 -51 58 -102 66 -113 111 -161 166 -178 32 -9
419 -12 1700 -12 l1659 1 45 22 c47 24 98 90 168 217 l33 60 -1916 0 c-1054 0
-1915 -4 -1913 -8z"/>
<path d="M1720 3690 l0 -140 93 0 c102 0 146 15 180 62 24 32 28 99 8 145 -23
57 -64 73 -180 73 l-101 0 0 -140z"/>
<path d="M2515 3610 c-32 -21 -65 -73 -65 -102 0 -16 13 -18 145 -18 140 0
145 1 145 20 0 34 -29 80 -63 100 -43 27 -122 27 -162 0z"/>
<path d="M4266 3610 c-71 -22 -96 -71 -96 -192 0 -116 16 -153 82 -186 80 -40
163 -9 204 75 26 56 24 175 -5 232 -34 65 -108 94 -185 71z"/>
<path d="M4979 3615 c-30 -16 -57 -54 -69 -96 l-9 -29 144 0 c84 0 146 4 150
10 12 19 -32 98 -64 114 -37 20 -117 20 -152 1z"/>
<path d="M7133 3361 c-38 -18 -73 -61 -73 -91 0 -6 11 -22 25 -35 19 -20 35
-25 71 -25 94 0 174 63 174 138 l0 32 -77 0 c-55 0 -90 -6 -120 -19z"/>
<path d="M8309 3615 c-30 -16 -57 -54 -69 -96 l-9 -29 150 0 c165 0 162 -1
135 65 -20 47 -69 75 -131 75 -27 -1 -62 -7 -76 -15z"/>
</g>
</svg>
